<svg width="100000" height="100000" version="1.1" xmlns="http://www.w3.org/2000/svg" desc="Created with ImageTracerAndroid.java version 1.1.2" ><path desc="l 1 p 0" fill="rgb(254,254,254)" stroke="rgb(254,254,254)" stroke-width="1" opacity="1.0" d="M 50.0 0.0 L 100000.0 50.0 L 99950.0 100000.0 L 0.0 99950.0 L 50.0 0.0 Z" /><path desc="l 0 p 0" fill="rgb(88,40,32)" stroke="rgb(88,40,32)" stroke-width="1" opacity="1.0" d="M 49650.0 15000.0 Q 50975.0 14925.0 51300.0 15850.0 L 56050.0 29000.0 L 57000.0 29350.0 Q 56729.21484375 32420.78515625 58250.0 33700.0 L 58750.0 33800.0 L 61050.0 32900.0 L 61500.0 33250.0 L 61600.0 34850.0 L 60700.0 38750.0 Q 59577.6796875 39877.6796875 59500.0 42050.0 Q 59450.0 43900.0 60450.0 44700.0 L 61450.0 44800.0 Q 65286.90625 43886.90625 67450.0 41300.0 L 70350.0 38800.0 L 73700.0 36650.0 Q 75214.4609375 35364.4609375 77950.0 35300.0 Q 78650.0 35800.0 78300.0 37350.0 L 76000.0 44450.0 L 75100.0 48550.0 L 75450.0 49200.0 L 77800.0 49850.0 L 77900.0 50950.0 L 76650.0 52500.0 L 76300.0 52750.0 L 74650.0 54900.0 L 73700.0 55750.0 L 73500.0 56350.0 Q 74555.359375 57544.64453125 77250.0 57100.0 L 78950.0 56800.0 L 79300.0 57750.0 L 77850.0 59700.0 L 72700.0 62550.0 L 72750.0 62700.0 L 74350.0 62400.0 L 74500.0 63250.0 L 73050.0 65100.0 L 66600.0 69350.0 L 66700.0 70050.0 L 66450.0 70400.0 Q 64464.8203125 72364.8203125 60450.0 72300.0 L 55250.0 71600.0 Q 52722.33984375 71722.34375 51200.0 72850.0 Q 50345.0 74345.0 50900.0 77250.0 L 51100.0 82550.0 L 50650.0 83100.0 Q 49325.0 83425.0 49000.0 82750.0 L 48900.0 80650.0 L 49100.0 73550.0 L 48550.0 72600.0 Q 46477.08203125 71422.9140625 43050.0 71600.0 L 37850.0 72300.0 Q 35132.1171875 71767.8828125 33400.0 70250.0 L 33300.0 69550.0 L 33400.0 69350.0 Q 28966.36328125 67383.6328125 25900.0 64050.0 L 25500.0 62550.0 L 26350.0 62400.0 L 27250.0 62700.0 L 27300.0 62550.0 Q 23703.142578125 61396.859375 21400.0 58950.0 L 20700.0 57150.0 L 21950.0 56800.0 L 23950.0 57100.0 L 26500.0 56350.0 L 25450.0 54900.0 L 24400.0 53950.0 L 23450.0 52500.0 L 22400.0 51550.0 L 22100.0 50050.0 L 22250.0 49800.0 L 24700.0 49050.0 L 24900.0 48450.0 L 24000.0 44550.0 L 23000.0 41050.0 Q 21600.0 39150.0 21700.0 35750.0 L 22050.0 35300.0 Q 24733.333984375 35366.66796875 26250.0 36600.0 L 29900.0 38950.0 L 33850.0 42400.0 Q 35699.08984375 44450.91015625 39250.0 44800.0 L 40000.0 44250.0 L 40500.0 41450.0 L 39300.0 38750.0 Q 38289.6015625 36660.3984375 38400.0 33450.0 L 38750.0 33000.0 L 39450.0 32900.0 L 41550.0 33800.0 L 42200.0 33250.0 L 42900.0 30950.0 L 43250.0 29100.0 L 44300.0 28650.0 L 47400.0 18950.0 Q 47869.32421875 16469.326171875 49450.0 15100.0 L 49650.0 15000.0 Z" /></svg>