<svg id="svg" version="1.1" viewBox="0 0 300 300" width="300" height="300" xmlns="http://www.w3.org/2000/svg"><svg xmlns="http://www.w3.org/2000/svg"><defs><clipPath id="clip-1"><rect x="0" y="0" transform="scale(0.14648,0.14648)" width="2048" height="2048" fill="none"/></clipPath></defs><g clip-path="url(#clip-1)" fill="none" fill-rule="nonzero" stroke="none" stroke-width="1" stroke-linecap="butt" stroke-linejoin="miter" stroke-miterlimit="10" stroke-dasharray="" stroke-dashoffset="0" font-family="none" font-weight="none" font-size="none" text-anchor="none" style="mix-blend-mode: normal"><path d="M149.2251,10.85158c1.08105,-0.09129 1.78564,0.06338 2.68506,0.69562c3.81152,2.67847 6.85254,11.52541 8.12695,16.03683c0.68262,2.41934 1.13232,4.89653 1.9541,7.27983c1.63916,4.74946 4.19971,9.19907 5.62061,14.04419c0.65332,2.22524 0.83496,4.53076 1.24219,6.80449c0.33105,1.85596 2.72607,9.58843 4.08252,10.59448c1.06055,0.78706 2.56494,0.5209 3.57422,1.28789c1.79297,1.36333 1.01367,8.15171 1.40771,10.40596c0.45557,2.61548 2.12988,6.02842 4.38281,7.53516c3.46436,2.31636 6.99023,-2.38813 10.24658,-2.95649c0.67676,-0.11777 1.39746,-0.01978 1.95703,0.40166c0.64746,0.48926 0.92871,1.35952 1.03711,2.1312c0.22998,1.63579 -0.63135,9.22207 -1.01221,10.86987c-0.50244,2.17983 -1.43555,4.17686 -2.146,6.28286c-0.45703,1.35249 -0.70752,2.84604 -1.30078,4.14404c-0.79248,1.73115 -2.31885,3.01641 -2.90479,4.86973c-0.71191,2.25454 -1.08691,4.83237 -0.85107,7.18579c0.31201,3.12744 0.56689,8.44204 3.2168,10.50894c2.37891,1.85552 5.46973,0.99639 8.06396,0.28125c2.00098,-0.55122 4.03711,-1.03286 5.94434,-1.86226c3.01172,-1.30942 10.45313,-6.43828 12.9873,-8.64038c1.88672,-1.63931 3.60645,-3.51621 5.43311,-5.23154c1.62598,-1.52769 3.03955,-3.36533 4.80322,-4.72983c2.81543,-2.17764 6.1582,-3.54932 9.16699,-5.41641c4.65381,-2.88735 8.76123,-6.9728 13.91455,-8.97847c1.70361,-0.66284 3.53027,-1.03491 5.3042,-1.45781c1.21582,-0.28975 2.50781,-0.83481 3.73535,-0.96021c0.56104,-0.05728 1.17627,0.01802 1.61719,0.39961c0.95508,0.82559 0.86279,2.64785 0.80566,3.7998c-0.22705,4.51157 -1.31982,8.32705 -3.11572,12.44561c-0.59766,1.37109 -1.29199,2.70176 -1.83398,4.09658c-0.56836,1.46147 -0.81299,3.02813 -1.35205,4.50059c-0.57861,1.58335 -1.4458,2.99312 -1.94238,4.6188c-1.07959,3.53452 -0.52295,7.10273 -1.18066,10.69951c-0.67529,3.69551 -3.39258,8.54282 -3.14648,12.0627c0.22119,3.17227 3.7207,4.25771 6.39404,4.725c1.25391,0.21973 3.14648,0.08057 4.12646,0.97559c0.41748,0.38232 0.60938,0.88184 0.62256,1.44141c0.08643,3.83203 -3.97412,5.90039 -6.16553,8.35693c-1.42383,1.59668 -2.15479,3.68408 -3.47607,5.35547c-1.68896,2.14014 -4.16748,3.74121 -6.104,5.67041c-1.04004,1.03711 -2.18848,2.44629 -2.12842,3.99756c0.02344,0.64746 0.28271,1.32129 0.78516,1.74316c0.56689,0.47754 1.25391,0.75732 1.95703,0.97266c2.25146,0.68701 9.84229,1.73877 12.12305,1.51465c2.02148,-0.19922 3.92285,-1.13818 5.92676,-1.27002c0.70459,-0.04541 1.57617,0.03516 2.07422,0.60498c0.2666,0.30615 0.37939,0.73975 0.35596,1.13965c-0.04834,0.86426 -0.59912,1.81055 -1.02686,2.55176c-0.80127,1.38428 -1.7373,2.729 -2.83447,3.89648c-2.47266,2.63086 -7.75342,6.43799 -10.98779,7.98633c-2.75537,1.31689 -9.06152,3.2666 -11.02881,5.04053c-0.39111,0.35303 -0.67822,0.85547 -0.65332,1.396c0.01465,0.3457 0.17725,0.68994 0.46875,0.88623c1.27002,0.8584 3.98291,-0.74707 5.3584,-1.021c0.56982,-0.11426 1.02979,-0.14648 1.5293,0.18604c0.25049,0.39404 0.22559,0.74561 0.11865,1.18066c-0.83203,3.3999 -3.68555,5.69531 -6.12305,7.94092c-1.0957,1.01074 -2.17529,2.09473 -3.40137,2.9458c-1.76514,1.22607 -3.7207,2.16357 -5.48437,3.4043c-1.46777,1.03125 -2.69531,2.4126 -4.22314,3.3501c-1.74902,1.07227 -3.71777,1.88818 -5.52979,2.85938c-2.32324,1.24658 -4.73291,2.82275 -6.90967,4.31104c-1.24512,0.85107 0.62109,1.95557 0.22852,3.10693c-0.42334,1.23926 -3.51416,2.69824 -4.67871,3.33838c-3.02344,1.65967 -6.01611,3.29736 -9.34863,4.26416c-6.96094,2.02002 -13.25977,-0.22998 -20.07422,-1.34473c-3.43506,-0.56104 -7.10889,-0.74121 -10.58789,-0.479c-1.88525,0.14355 -3.81592,0.79834 -5.67773,1.15723c-2.80371,0.5376 -5.82129,0.88623 -8.47412,1.97607c-1.94092,0.79834 -3.12451,2.10938 -3.73096,4.12207c-0.78955,2.61328 -0.41748,5.50342 -0.36035,8.18848c0.09668,4.58643 0.2915,9.14941 0.44678,13.73438c0.08643,2.56641 -0.01465,5.13867 0.08789,7.70361c0.09082,2.31885 0.76318,5.62939 -0.22852,7.75928c-0.36621,0.78955 -1.18945,1.18066 -1.96875,1.4502c-1.11475,0.0293 -2.40234,0.15088 -3.38379,-0.47461c-0.73389,-0.46729 -1.02686,-1.125 -1.17334,-1.95557c-0.42817,-2.4375 0.00439,-5.12109 0.07471,-7.58643c0.06885,-2.42432 -0.00586,-4.84424 0.09229,-7.26855l0.41016,-12.47314c0.07471,-2.7876 0.44531,-5.76855 -0.21826,-8.50342c-1.17393,-4.82959 -5.15684,-5.3335 -9.37046,-6.14355c-2.88003,-0.55371 -5.85483,-1.37549 -8.75757,-1.70508c-3.08716,-0.3501 -6.63853,-0.05273 -9.71221,0.39551c-5.83213,0.85254 -11.0751,2.72314 -17.0978,2.13428c-5.47632,-0.5376 -10.74624,-3.43066 -15.37808,-6.26807c-4.47979,-2.74512 -1.29565,-2.76709 -1.79019,-4.81494c-0.69888,-0.646 -1.60503,-1.08105 -2.40806,-1.59229c-3.11411,-1.98193 -5.65693,-3.43066 -8.93438,-5.1123c-2.20957,-1.13379 -3.71104,-2.75391 -5.71025,-4.14697c-1.83486,-1.27881 -3.86104,-2.25732 -5.68491,-3.54346c-1.16133,-0.82031 -2.1835,-1.89697 -3.22925,-2.85791c-2.37715,-2.18262 -4.98647,-4.25244 -5.94683,-7.49854c-0.16641,-0.5625 -0.21841,-0.9917 0.07192,-1.52783c1.46733,-1.08984 4.78257,1.5835 6.64937,0.9917c1.17554,-0.37207 0.52559,-2.1123 -0.10107,-2.52832c-3.85488,-2.55908 -8.65239,-3.59033 -12.68232,-5.87109c-1.59521,-0.90234 -3.00908,-1.979 -4.44316,-3.10986c-3.36489,-2.33496 -6.1248,-4.88086 -8.04844,-8.56055c-0.52676,-1.00781 -1.19238,-2.96631 0.39492,-3.45703c2.2418,-0.69434 4.88145,1.05322 7.19355,1.07959c1.28892,0.01611 2.50957,0.05127 3.79966,-0.17871c2.47397,-0.52588 10.57881,-0.52881 11.18994,-3.44971c0.73345,-3.50537 -5.68916,-7.31104 -7.72646,-9.65186c-1.61792,-1.85889 -2.26187,-3.84814 -3.77476,-5.72607c-2.53008,-2.68652 -7.04561,-5.15039 -6.15981,-9.53906c0.30615,-1.51758 3.56836,-1.08252 4.65732,-1.3916c1.54951,-0.38379 5.19302,-1.54248 5.86216,-3.13081c1.55391,-3.68804 -1.80249,-9.01099 -2.51089,-12.76699c-0.61875,-3.28081 -0.55884,-5.37949 -0.68511,-8.53901c-0.10708,-2.68345 -1.82607,-5.59731 -2.76108,-8.04873c-0.53188,-1.31719 -0.7251,-3.1478 -1.27354,-4.35732c-2.30815,-4.9522 -4.65952,-9.98481 -4.84438,-15.47637c-0.17373,-5.15991 0.29326,-5.90698 5.19243,-4.35425c1.92729,0.61084 4.26064,0.89429 6.20859,1.7042c5.21177,2.1665 9.16421,6.03662 13.88672,8.96895c4.86782,2.88223 8.95605,4.40244 12.73228,8.88149c1.57734,1.87104 4.27397,3.96548 6.01523,5.88911c2.11538,2.15493 5.05107,3.67515 7.40039,5.41787c4.0686,3.01816 6.54053,4.18945 11.37993,5.48291c5.22187,1.39556 9.87495,2.30376 11.2374,-4.62788c0.95654,-4.86592 1.62188,-9.20186 -0.30835,-13.96963c-0.45952,-1.2627 -2.38638,-3.11572 -2.69473,-4.327c-0.52676,-3.31699 -2.63423,-6.34233 -3.17271,-9.53599c-0.554,-3.28623 -1.627,-9.48398 -0.79336,-12.73916c0.11089,-0.43286 0.95889,-1.33359 1.3582,-1.3415c4.83281,-0.09595 9.02944,7.46616 13.37168,1.06201c4.26812,-5.39795 1.70977,-9.37646 3.40518,-15.35552c0.42524,-1.50015 4.13394,-0.95845 4.81992,-2.67905c1.16851,-2.93057 2.47749,-5.96045 3.21826,-9.03896c0.62095,-2.75581 0.63252,-5.67715 1.64136,-8.36572c1.33711,-4.40713 3.7957,-8.70176 5.26831,-13.00049c1.61953,-4.72793 2.35312,-9.57451 4.41006,-14.28208c1.49341,-3.41792 3.25283,-8.33691 6.91318,-10.00326z" fill="#000000"/></g></svg></svg>
